<svg width="103" height="120" viewBox="0 0 103 120" fill="none" xmlns="http://www.w3.org/2000/svg">
<path d="M19.2139 119.326C18.5396 118.988 18.0109 118.416 17.7259 117.717C17.4409 117.018 17.4189 116.24 17.6639 115.526L21.6838 103.756L29.5538 109.066L23.1938 118.306C22.7646 118.927 22.1256 119.372 21.3944 119.56C20.6632 119.747 19.8889 119.664 19.2139 119.326ZM82.5331 119.326C83.923 118.626 84.593 117.006 84.083 115.526L80.0131 103.616L71.7232 108.386L78.5531 118.306C78.9823 118.927 79.6213 119.372 80.3526 119.56C81.0838 119.747 81.8581 119.664 82.5331 119.326Z" fill="#82AEC0"/>
<path d="M50.8736 115.236C78.134 115.236 100.233 93.1371 100.233 65.8767C100.233 38.6163 78.134 16.5173 50.8736 16.5173C23.6132 16.5173 1.51422 38.6163 1.51422 65.8767C1.51422 93.1371 23.6132 115.236 50.8736 115.236Z" fill="#CC2929"/>
<path d="M50.8735 114.756C76.4992 114.756 97.2729 93.9826 97.2729 68.3569C97.2729 42.7312 76.4992 21.9575 50.8735 21.9575C25.2478 21.9575 4.47412 42.7312 4.47412 68.3569C4.47412 93.9826 25.2478 114.756 50.8735 114.756Z" fill="#FF4638"/>
<path d="M50.8734 108.386C72.981 108.386 90.9028 90.4643 90.9028 68.3566C90.9028 46.249 72.981 28.3271 50.8734 28.3271C28.7657 28.3271 10.8439 46.249 10.8439 68.3566C10.8439 90.4643 28.7657 108.386 50.8734 108.386Z" fill="#FAFAFA"/>
<path d="M51.1734 72.8066C53.631 72.8066 55.6233 70.8143 55.6233 68.3567C55.6233 65.899 53.631 63.9067 51.1734 63.9067C48.7158 63.9067 46.7234 65.899 46.7234 68.3567C46.7234 70.8143 48.7158 72.8066 51.1734 72.8066Z" fill="#563428"/>
<path d="M50.8734 38.2266C50.0634 38.2266 49.4034 37.5666 49.4034 36.7566V32.3567C49.4034 31.5467 50.0634 30.8867 50.8734 30.8867C51.6834 30.8867 52.3434 31.5467 52.3434 32.3567V36.7566C52.3434 37.5666 51.6834 38.2266 50.8734 38.2266ZM50.8734 105.816C50.0634 105.816 49.4034 105.156 49.4034 104.346V99.9458C49.4034 99.1358 50.0634 98.4758 50.8734 98.4758C51.6834 98.4758 52.3434 99.1358 52.3434 99.9458V104.346C52.3434 105.156 51.6834 105.816 50.8734 105.816ZM33.8036 41.7266L31.6036 37.9166C31.1936 37.2166 31.4336 36.3166 32.1436 35.9067C32.8436 35.4967 33.7436 35.7367 34.1536 36.4466L36.3536 40.2566C36.7636 40.9566 36.5236 41.8566 35.8136 42.2666C35.1136 42.6666 34.2136 42.4266 33.8036 41.7266ZM67.6032 100.256L65.4032 96.4459C64.9932 95.7459 65.2432 94.8459 65.9432 94.4359C66.6432 94.0259 67.5432 94.2759 67.9532 94.9759L70.1531 98.7858C70.5631 99.4858 70.3131 100.386 69.6131 100.796C68.9032 101.196 68.0032 100.956 67.6032 100.256Z" fill="#B2947C"/>
<path d="M33.8037 41.7272L31.6037 37.9173C31.1937 37.2173 31.4337 36.3173 32.1437 35.9073C32.8437 35.4973 33.7437 35.7373 34.1537 36.4473L36.3536 40.2572C36.7636 40.9572 36.5236 41.8572 35.8136 42.2672C35.1136 42.6672 34.2137 42.4272 33.8037 41.7272ZM67.6032 100.256L65.4033 96.4465C64.9933 95.7465 65.2433 94.8465 65.9432 94.4365C66.6432 94.0265 67.5432 94.2765 67.9532 94.9765L70.1532 98.7865C70.5632 99.4865 70.3132 100.386 69.6132 100.796C68.9032 101.196 68.0032 100.956 67.6032 100.256ZM22.7838 53.8271L18.9738 51.6271C18.2739 51.2171 18.0339 50.3271 18.4339 49.6171C18.8438 48.9171 19.7338 48.6771 20.4438 49.0771L24.2538 51.2771C24.9538 51.6871 25.1938 52.5771 24.7938 53.2871C24.3838 53.9971 23.4838 54.237 22.7838 53.8271ZM81.313 87.6166L77.5031 85.4166C76.8031 85.0067 76.5631 84.1167 76.9631 83.4067C77.3731 82.7067 78.2631 82.4667 78.9731 82.8667L82.783 85.0667C83.483 85.4767 83.723 86.3666 83.323 87.0766C82.913 87.7866 82.013 88.0266 81.313 87.6166ZM65.9332 42.2672C65.2333 41.8572 64.9933 40.9672 65.3933 40.2572L67.5932 36.4473C68.0032 35.7473 68.8932 35.5073 69.6032 35.9073C70.3032 36.3173 70.5432 37.2073 70.1432 37.9173L67.9432 41.7272C67.5332 42.4272 66.6432 42.6672 65.9332 42.2672ZM32.1437 100.796C31.4437 100.386 31.2037 99.4965 31.6037 98.7865L33.8037 94.9765C34.2137 94.2765 35.1036 94.0365 35.8136 94.4365C36.5136 94.8465 36.7536 95.7365 36.3536 96.4465L34.1537 100.256C33.7437 100.956 32.8437 101.196 32.1437 100.796ZM76.9631 53.2871C76.5531 52.5871 76.7931 51.6871 77.5031 51.2771L81.313 49.0771C82.013 48.6671 82.913 48.9171 83.323 49.6171C83.733 50.3171 83.483 51.2171 82.783 51.6271L78.9731 53.8271C78.2631 54.237 77.3631 53.9971 76.9631 53.2871ZM18.4339 87.0866C18.0239 86.3866 18.2739 85.4866 18.9738 85.0766L22.7838 82.8767C23.4838 82.4667 24.3838 82.7167 24.7938 83.4167C25.2038 84.1167 24.9538 85.0167 24.2538 85.4266L20.4438 87.6266C19.7338 88.0266 18.8338 87.7866 18.4339 87.0866Z" fill="#B2947C"/>
<path d="M34.6635 59.1467L50.8733 68.3566" stroke="#563428" stroke-miterlimit="10" stroke-linecap="round"/>
<path d="M74.0431 55.0667L51.6134 68.3565" stroke="#563428" stroke-miterlimit="10" stroke-linecap="round"/>
<path d="M79.1631 28.1472L75.0231 25.4372L89.113 0.477539L93.4129 2.90751L79.1631 28.1472Z" fill="#82AEC0"/>
<path d="M98.3427 30.8671C99.5727 31.2271 100.893 30.5471 101.273 29.3271C104.513 18.9773 100.313 7.71742 90.1528 2.48748C79.923 -2.78245 68.8131 0.677507 62.3432 9.50739C61.6132 10.4974 61.7832 11.8874 62.7032 12.6974C64.7931 14.5473 69.4331 18.0273 78.683 22.7072C88.4528 27.6472 95.1528 29.9271 98.3427 30.8671Z" fill="#CC2929"/>
<path d="M93.023 5.95737C93.023 5.95737 95.6329 2.62741 91.843 0.517438C88.893 -1.12254 87.023 2.46741 87.023 2.46741C86.3731 3.6574 92.573 6.77736 93.023 5.95737ZM22.8039 28.1771L8.53406 2.90741L12.844 0.477438L26.7038 25.0371L22.8039 28.1771Z" fill="#82AEC0"/>
<path d="M4.00397 30.8671C2.77399 31.2271 1.454 30.5471 1.07401 29.3271C-2.16595 18.9773 2.034 7.71742 12.1939 2.48748C22.4237 -2.78245 33.5336 0.677507 40.0035 9.50739C40.7335 10.4974 40.5635 11.8874 39.6435 12.6974C37.5535 14.5473 32.9136 18.0273 23.6637 22.7072C13.8938 27.6472 7.19393 29.9271 4.00397 30.8671Z" fill="#CC2929"/>
<path d="M9.32398 5.95737C9.32398 5.95737 6.71402 2.62741 10.504 0.517438C13.4539 -1.12254 15.3239 2.46741 15.3239 2.46741C15.9739 3.6574 9.77398 6.77736 9.32398 5.95737Z" fill="#82AEC0"/>
<path d="M50.8734 18.8775V5.15771" stroke="#82AEC0" stroke-width="3.706" stroke-miterlimit="10"/>
<path d="M50.9334 10.0372C47.0134 10.0372 43.0835 8.5372 43.0835 8.5372V5.56724C43.0835 5.56724 46.7335 3.93726 51.1234 3.93726C55.5133 3.93726 58.7733 5.56724 58.7733 5.56724V8.5372C58.7833 8.5472 54.8633 10.0372 50.9334 10.0372Z" fill="#82AEC0"/>
<path d="M44.0736 5.44779C43.6436 5.60778 43.6036 6.19778 44.0036 6.42777C44.5836 6.75777 45.2736 7.09777 45.5136 7.05777C48.8136 6.54777 53.6035 6.79777 56.9135 7.29776C57.1435 7.33776 57.8034 6.77777 58.2734 6.35778C58.5334 6.11778 58.4734 5.70778 58.1534 5.55779C57.1135 5.08779 54.7635 4.2478 51.1235 4.2478C47.7636 4.2478 45.3336 4.95779 44.0736 5.44779Z" fill="#94D1E0"/>
<path d="M82.2332 3.55725C82.5432 4.61723 81.4032 5.48722 80.4832 6.09721C78.1638 7.65531 76.3002 9.8019 75.0833 12.3171C74.5033 13.5171 73.8533 14.9871 72.5233 15.1771C71.9933 15.2471 71.4733 15.0871 70.9733 14.9071C70.2033 14.6271 69.4533 14.3071 68.7234 13.9371C67.8534 13.4971 66.9634 12.9371 66.5634 12.0471C66.0434 10.8772 66.5334 9.49717 67.2334 8.41718C68.9033 5.86722 71.6233 4.28724 74.4233 3.24725C76.1133 2.61726 81.3932 0.687284 82.2332 3.55725ZM13.3041 11.9871C13.9541 13.3371 14.684 14.6471 15.494 15.9071C16.484 17.4471 17.634 19.167 17.214 20.947C16.724 22.987 14.464 23.967 12.4741 24.647C11.4541 24.997 10.4441 25.347 9.42411 25.697C8.88412 25.887 8.31413 26.077 7.74413 26.047C6.84415 26.007 6.03416 25.437 5.52416 24.707C5.00417 23.977 4.74417 23.097 4.54418 22.227C3.79419 18.8771 3.94418 15.3271 4.97417 12.0471C5.57416 10.1672 6.51415 8.18719 8.64412 8.03719C11.2341 7.85719 12.3341 9.96716 13.3041 11.9871Z" fill="#FF4638"/>
<path d="M51.4593 38.2266C50.6493 38.2266 49.9893 37.5666 49.9893 36.7566V32.3567C49.9893 31.5467 50.6493 30.8867 51.4593 30.8867C52.2693 30.8867 52.9293 31.5467 52.9293 32.3567V36.7566C52.9293 37.5666 52.2693 38.2266 51.4593 38.2266ZM51.4593 105.816C50.6493 105.816 49.9893 105.156 49.9893 104.346V99.9458C49.9893 99.1358 50.6493 98.4758 51.4593 98.4758C52.2693 98.4758 52.9293 99.1358 52.9293 99.9458V104.346C52.9293 105.156 52.2693 105.816 51.4593 105.816ZM87.4489 69.8162H83.0489C82.2389 69.8162 81.5789 69.1562 81.5789 68.3462C81.5789 67.5362 82.2389 66.8763 83.0489 66.8763H87.4489C88.2589 66.8763 88.9189 67.5362 88.9189 68.3462C88.9189 69.1662 88.2589 69.8162 87.4489 69.8162ZM19.8697 69.8162H15.4698C14.6598 69.8162 13.9998 69.1562 13.9998 68.3462C13.9998 67.5362 14.6598 66.8763 15.4698 66.8763H19.8697C20.6797 66.8763 21.3397 67.5362 21.3397 68.3462C21.3397 69.1662 20.6797 69.8162 19.8697 69.8162Z" fill="#B2947C"/>
</svg>
